<svg xmlns="http://www.w3.org/2000/svg" width="150" height="150" viewBox="0 0 150 150"><defs><style>.cls-1{fill:#0f2447;}.cls-2{fill:none;stroke:#0095da;stroke-miterlimit:10;stroke-width:3.5px;}.cls-3{fill:#fff;}.cls-4{fill:#f6d809;}</style></defs><title>collaborate-logo</title><g id="Layer_1" data-name="Layer 1"><rect class="cls-1" width="150" height="150"/><line class="cls-2" x1="101.14" y1="45.02" x2="86.87" y2="64.66"/><line class="cls-2" x1="79.36" y1="37.94" x2="79.36" y2="62.22"/><line class="cls-2" x1="57.57" y1="45.02" x2="71.84" y2="64.66"/><line class="cls-2" x1="44.11" y1="63.55" x2="67.2" y2="71.05"/><line class="cls-2" x1="44.11" y1="86.45" x2="67.2" y2="78.95"/><line class="cls-2" x1="57.57" y1="104.98" x2="71.84" y2="85.34"/><line class="cls-2" x1="79.36" y1="112.06" x2="79.36" y2="87.78"/><line class="cls-2" x1="101.14" y1="104.98" x2="86.87" y2="85.34"/><circle class="cls-3" cx="105.87" cy="38.67" r="9.71"/><circle class="cls-3" cx="79.45" cy="30.03" r="9.71"/><circle class="cls-3" cx="53" cy="38.56" r="9.71"/><circle class="cls-3" cx="36.61" cy="61.02" r="9.71"/><circle class="cls-3" cx="36.56" cy="88.81" r="9.71"/><circle class="cls-3" cx="52.85" cy="111.33" r="9.71"/><circle class="cls-3" cx="79.26" cy="119.97" r="9.71"/><circle class="cls-3" cx="105.72" cy="111.44" r="9.71"/><rect class="cls-4" x="65.42" y="61.06" width="27.88" height="27.88" rx="13.94"/></g></svg>